<?xml version="1.0" standalone="no"?>
<svg width="67.5" height="67.5" version="1.1" xmlns="http://www.w3.org/2000/svg">
	<defs>
		<linearGradient id="GRD1">
			<stop stop-color="#ef4136" offset="0"></stop>
			<stop stop-color="#fbb040" offset="1"></stop>
		</linearGradient>
	</defs>
	<g featurekey="symbolContainer" transform="matrix(0.9,0,0,0.9,0,0)" fill="url(#GRD1)">
		<rect width="75" height="75" rx="10" ry="10"></rect>
	</g>
	<g featurekey="monogramFeature-0" transform="matrix(0.8141286328279902,0,0,0.8141286328279902,13.556832835363855,1.6813654621253473)" fill="#f8f3d4">
		<path d="M45.476 34.253 c0.39088 1.6531 0.52875 3.3214 0.51475 4.9593 c-0.040664 3.2834 -0.81732 6.4596 -2.2092 9.3558 c-0.68892 1.4516 -1.5807 2.815 -2.5855 4.0899 c-1.0188 1.2705 -2.222 2.4107 -3.5294 3.4162 c-1.3328 0.9915 -2.7686 1.7803 -4.245 2.4101 c-1.4879 0.59555 -3.0145 1.022 -4.5564 1.2794 c-1.5451 0.22752 -3.0984 0.31652 -4.6428 0.21739 c-1.5432 -0.11883 -3.0762 -0.36223 -4.5665 -0.8205 c-2.9681 -0.8898 -5.8155 -2.548 -7.9866 -4.8284 c-1.0729 -1.1307 -2.0186 -2.3592 -2.7514 -3.6844 c-0.74622 -1.3163 -1.3519 -2.6961 -1.7587 -4.1293 c-0.42457 -1.4256 -0.69342 -2.8931 -0.7659 -4.3791 c-0.065448 -0.73794 -0.023496 -1.4885 -0.007617 -2.2296 c0.040019 -0.38455 0.073068 -0.76848 0.11754 -1.1511 c-0.48428 -0.12586 -0.94062 -0.28219 -1.3525 -0.47983 c-0.76842 -0.35912 -1.4104 -0.88536 -1.7726 -1.4599 c-0.35719 -0.56314 -0.47731 -1.2273 -0.28852 -1.9073 c0.13858 -0.50719 0.30955 -0.9648 0.47356 -1.4447 l0.25676 -0.7074 l0.28981 -0.64764 l0.60504 -1.2749 l0.67122 -1.1624 l0.34318 -0.57457 l0.3661 -0.53262 l0.74424 -1.0525 c0.52688 -0.65142 1.043 -1.3207 1.6099 -1.9169 c0.56373 -0.60126 1.13 -1.1974 1.7453 -1.7358 c0.59174 -0.56186 1.2362 -1.0735 1.8839 -1.5762 c0.64128 -0.50719 1.3538 -0.9597 2.0428 -1.4198 c0.75126 -0.42586 1.4377 -0.8733 2.2614 -1.2407 c1.54 -0.78174 3.3584 -1.3964 5.3503 -1.7777 c0.52436 -0.079452 1.05 -0.14807 1.575 -0.20525 c0.5161 -0.050215 0.95274 -0.038144 1.432 -0.050215 c0.47098 -0.015235 0.93432 0.008262 1.3958 0.047695 c0.46013 0.042598 0.92916 0.055957 1.3766 0.13858 c3.6399 0.51674 6.9198 1.9601 9.6558 3.9724 c1.383 0.99402 2.6122 2.1686 3.7193 3.4454 c1.1129 1.2718 2.0586 2.7012 2.8422 4.2265 c0.79764 1.519 1.3779 3.1855 1.7465 4.8304 z M32.824 43.742000000000004 c0.4735 -1.3722 0.65604 -2.8701 0.50092 -4.2499 c-0.0801 -0.6864 -0.2066 -1.3532 -0.44174 -1.9474 c-0.22119 -0.60696 -0.47731 -1.1389 -0.84144 -1.6423 c-0.6864 -1.0214 -1.6957 -1.9309 -2.8022 -2.541 c-1.1039 -0.62412 -2.2982 -0.91968 -3.2961 -0.9114 c-0.12773 -0.019043 -0.24598 0.022265 -0.36674 0.021621 c-0.12076 0.0025195 -0.23959 0.009492 -0.3508 0.041894 c-0.10172 0.027305 -0.25108 0.027305 -0.31207 0.059063 c-0.050215 0.035566 -0.099786 0.059063 -0.15129 0.071778 c-0.27076 0.14807 -0.68388 0.28916 -1.1784 0.65208 c-0.97752 0.61014 -2.0624 1.697 -2.8582 2.7902 c-0.82686 1.0862 -1.2635 2.3345 -1.2826 2.8531 c0.044473 0.064806 -0.2015 0.053379 -0.66738 0.048926 c-0.45697 -0.014004 -1.0837 -0.060408 -1.8883 -0.042598 c-0.73404 0.0057422 -1.5921 0.050215 -2.5099 0.098496 c-0.024785 0.34763 -0.01207 0.7023 -0.021621 1.0499 c0.04957 0.42328 0.053379 0.8421 0.14555 1.261 c0.12586 0.83706 0.37436 1.6608 0.7023 2.4387 c0.64002 1.5635 1.6544 2.9402 2.8423 3.9215 c1.1726 0.9807 2.569 1.5889 4.1051 1.88 c0.76332 0.14936 1.559 0.1735 2.3421 0.15568 c0.7881 -0.036856 1.5641 -0.1786 2.3115 -0.36674 c0.74232 -0.21674 1.4421 -0.50783 2.0904 -0.84852 c0.62862 -0.37119 1.2044 -0.78114 1.697 -1.2445 c0.47989 -0.48873 0.93174 -1.0087 1.3055 -1.6111 c0.36035 -0.61014 0.6972 -1.2444 0.92604 -1.9385 z"></path>
	</g>
</svg>